<svg xmlns="http://www.w3.org/2000/svg" viewBox="0 0 1600 900" role="img" aria-label="爸爸與女兒在台灣海岸公路騎單車">
  <defs>
    <linearGradient id="sky" x1="0" x2="1" y1="0" y2="1">
      <stop offset="0" stop-color="#f8c979"/>
      <stop offset=".46" stop-color="#d9eef0"/>
      <stop offset="1" stop-color="#86b7c0"/>
    </linearGradient>
    <linearGradient id="sea" x1="0" x2="1">
      <stop offset="0" stop-color="#f7bb59"/>
      <stop offset=".48" stop-color="#438fa0"/>
      <stop offset="1" stop-color="#19586d"/>
    </linearGradient>
    <linearGradient id="road" x1=".28" x2=".86" y1=".62" y2="1">
      <stop offset="0" stop-color="#6e7169"/>
      <stop offset="1" stop-color="#252923"/>
    </linearGradient>
    <filter id="soft" x="-20%" y="-20%" width="140%" height="140%">
      <feGaussianBlur stdDeviation="18"/>
    </filter>
  </defs>
  <rect width="1600" height="900" fill="url(#sky)"/>
  <circle cx="156" cy="388" r="92" fill="#fff4cf" opacity=".95"/>
  <circle cx="156" cy="388" r="160" fill="#ffd989" opacity=".28" filter="url(#soft)"/>
  <path d="M0 515c164-35 277-25 415 5 176 39 330 47 514-12 175-56 328-67 671-29v421H0z" fill="url(#sea)" opacity=".9"/>
  <path d="M730 446c112-78 176-163 286-194 72-20 149-10 215-58 93-68 191-167 369-184v890H688z" fill="#214b3d"/>
  <path d="M820 487c85-57 138-123 224-145 62-16 128-6 181-42 75-51 160-121 297-136v736H789z" fill="#2f6653"/>
  <path d="M974 563c95-68 188-65 284-108 90-39 191-119 342-119v564H1013z" fill="#3d765d"/>
  <path d="M0 760c162-77 265-97 390-75 113 20 198 75 322 57 118-18 222-77 358-78 128-2 263 47 530 12v224H0z" fill="#335f38"/>
  <path d="M658 900c108-161 220-266 369-333 152-69 312-77 573-104v437z" fill="url(#road)"/>
  <path d="M895 900c72-118 151-199 258-253 104-53 216-68 447-98" fill="none" stroke="#f4f1dc" stroke-width="8" opacity=".9"/>
  <path d="M1092 900c58-96 125-165 219-209 82-39 171-52 289-67" fill="none" stroke="#f4f1dc" stroke-width="3" opacity=".7"/>
  <g transform="translate(1030 590)">
    <circle cx="70" cy="164" r="42" fill="none" stroke="#1a211d" stroke-width="12"/>
    <circle cx="226" cy="164" r="52" fill="none" stroke="#1a211d" stroke-width="14"/>
    <path d="M93 161l47-86 52 89M140 75h66M151 84l-32 80" fill="none" stroke="#1a211d" stroke-width="10" stroke-linecap="round" stroke-linejoin="round"/>
    <path d="M171 49c14-13 32-10 42 3 15 20 22 56 16 92" fill="none" stroke="#17201c" stroke-width="18" stroke-linecap="round"/>
    <circle cx="169" cy="23" r="22" fill="#17201c"/>
    <path d="M143 18c18-20 47-19 66-1" fill="none" stroke="#f3b44e" stroke-width="8" stroke-linecap="round"/>
    <path d="M165 70l-36 55M204 77l34 45" fill="none" stroke="#17201c" stroke-width="14" stroke-linecap="round"/>
  </g>
  <g transform="translate(870 648) scale(.72)">
    <circle cx="65" cy="144" r="38" fill="none" stroke="#1a211d" stroke-width="12"/>
    <circle cx="190" cy="144" r="38" fill="none" stroke="#1a211d" stroke-width="12"/>
    <path d="M88 141l43-75 42 76M131 66h47M142 73l-28 69" fill="none" stroke="#1a211d" stroke-width="9" stroke-linecap="round" stroke-linejoin="round"/>
    <path d="M145 45c9-10 24-9 32 1 13 16 18 46 13 76" fill="none" stroke="#ffffff" stroke-width="17" stroke-linecap="round"/>
    <circle cx="145" cy="22" r="20" fill="#ffffff"/>
    <path d="M122 17c17-17 43-17 59 0" fill="none" stroke="#17201c" stroke-width="7" stroke-linecap="round"/>
    <path d="M144 63l-30 48M175 69l25 37" fill="none" stroke="#ffffff" stroke-width="12" stroke-linecap="round"/>
  </g>
  <path d="M0 900h1600v-95c-242 25-381 15-514-27-152-49-293-35-409 10-133 52-266 35-394-17-101-41-187-48-283-20z" fill="#233c27" opacity=".55"/>
</svg>
